<?xml version="1.0" encoding="utf-8"?>
<!-- Generator: Adobe Illustrator 21.0.1, SVG Export Plug-In . SVG Version: 6.00 Build 0)  -->
<svg version="1.1" id="Layer_1" xmlns="http://www.w3.org/2000/svg" xmlns:xlink="http://www.w3.org/1999/xlink" x="0px" y="0px"
	 viewBox="0 0 879.9 737.5" style="enable-background:new 0 0 879.9 737.5;" xml:space="preserve">
<style type="text/css">
	.st0{opacity:0.54;}
	.st1{fill:#B1B1B1;}
</style>
<g class="st0">
	<g>
		<path class="st1" d="M220,436.6c37.4,0,68.1-28.4,71.9-64.8H148.1C151.9,408.3,182.6,436.6,220,436.6"/>
		<path class="st1" d="M220,291.8c-37.4,0-68.1,28.4-71.9,64.8h143.9C288.1,320.2,257.4,291.8,220,291.8"/>
		<path class="st1" d="M282.7,545.3c18.7-32.4,9.5-73.3-20.1-94.8l-71.9,124.8C224,590.2,264,577.7,282.7,545.3"/>
		<path class="st1" d="M157.4,472.9c-18.7,32.4-9.5,73.3,20.1,94.8l71.9-124.8C216,428,176.1,440.5,157.4,472.9"/>
		<path class="st1" d="M400.9,426.9c32.4-18.7,44.8-58.7,29.9-92.2l-124.6,72C327.7,436.5,368.5,445.7,400.9,426.9"/>
		<path class="st1" d="M328.5,301.5c-32.4,18.7-44.8,58.7-29.9,92.2l124.6-72C401.7,291.9,360.9,282.8,328.5,301.5"/>
		<path class="st1" d="M364.7,581.5c37.4,0,68.1-28.4,71.9-64.8H292.7C296.5,553.1,327.3,581.5,364.7,581.5"/>
		<path class="st1" d="M364.7,436.6c-37.4,0-68.1,28.4-71.9,64.8h143.9C432.8,465,402.1,436.6,364.7,436.6"/>
		<path class="st1" d="M75.3,146.9c37.4,0,68.1-28.4,71.9-64.8H3.4C7.2,118.5,38,146.9,75.3,146.9"/>
		<path class="st1" d="M75.3,2C38,2,7.2,30.4,3.4,66.8h143.9C143.5,30.4,112.7,2,75.3,2"/>
		<path class="st1" d="M138,255.6c18.7-32.4,9.5-73.3-20.1-94.8L46,285.5C79.4,300.4,119.3,288,138,255.6"/>
		<path class="st1" d="M12.7,183.1c-18.7,32.4-9.5,73.3,20.1,94.8l71.9-124.8C71.3,138.2,31.4,150.7,12.7,183.1"/>
		<path class="st1" d="M256.2,137.2c32.4-18.7,44.8-58.7,29.9-92.2l-124.6,72C183,146.7,223.8,155.9,256.2,137.2"/>
		<path class="st1" d="M183.9,11.7c-32.4,18.7-44.8,58.7-29.9,92.2l124.6-72C257,2.2,216.2-7,183.9,11.7"/>
		<path class="st1" d="M220,291.8c37.4,0,68.1-28.4,71.9-64.8H148.1C151.9,263.4,182.6,291.8,220,291.8"/>
		<path class="st1" d="M220,146.9c-37.4,0-68.1,28.4-71.9,64.8h143.9C288.1,175.3,257.4,146.9,220,146.9"/>
		<path class="st1" d="M509.3,146.9c-37.4,0-68.1-28.4-71.9-64.8h143.9C577.5,118.5,546.7,146.9,509.3,146.9"/>
		<path class="st1" d="M509.3,2c37.4,0,68.1,28.4,71.9,64.8H437.4C441.2,30.4,472,2,509.3,2"/>
		<path class="st1" d="M446.7,255.6c-18.7-32.4-9.5-73.3,20.1-94.8l71.9,124.8C505.3,300.4,465.4,288,446.7,255.6"/>
		<path class="st1" d="M572,183.1c18.7,32.4,9.5,73.3-20.1,94.8L480,153.1C513.4,138.2,553.3,150.7,572,183.1"/>
		<path class="st1" d="M328.5,137.2c-32.4-18.7-44.8-58.7-29.9-92.2l124.6,72C401.7,146.7,360.9,155.9,328.5,137.2"/>
		<path class="st1" d="M400.8,11.7c32.4,18.7,44.8,58.7,29.9,92.2l-124.6-72C327.7,2.2,368.5-7,400.8,11.7"/>
		<path class="st1" d="M364.7,291.8c-37.4,0-68.1-28.4-71.9-64.8h143.9C432.8,263.4,402.1,291.8,364.7,291.8"/>
		<path class="st1" d="M364.7,146.9c37.4,0,68.1,28.4,71.9,64.8H292.7C296.6,175.3,327.3,146.9,364.7,146.9"/>
		<path class="st1" d="M654,726.4c37.4,0,68.1-28.4,71.9-64.8H582.1C585.9,698,616.6,726.4,654,726.4"/>
		<path class="st1" d="M654,581.5c-37.4,0-68.1,28.4-71.9,64.8h143.9C722.1,609.9,691.4,581.5,654,581.5"/>
		<path class="st1" d="M834.9,716.7c32.4-18.7,44.8-58.7,29.9-92.2l-124.6,72C761.7,726.2,802.5,735.4,834.9,716.7"/>
		<path class="st1" d="M762.5,591.2c-32.4,18.7-44.8,58.7-29.9,92.2l124.6-72C835.7,581.7,794.9,572.5,762.5,591.2"/>
		<path class="st1" d="M509.3,436.6c37.4,0,68.1-28.4,71.9-64.8H437.4C441.2,408.3,472,436.6,509.3,436.6"/>
		<path class="st1" d="M509.3,291.8c-37.4,0-68.1,28.4-71.9,64.8h143.9C577.5,320.2,546.7,291.8,509.3,291.8"/>
		<path class="st1" d="M572,545.3c18.7-32.4,9.5-73.3-20.1-94.8L480,575.3C513.4,590.2,553.3,577.7,572,545.3"/>
		<path class="st1" d="M446.7,472.9c-18.7,32.4-9.5,73.3,20.1,94.8l71.9-124.8C505.3,428,465.4,440.5,446.7,472.9"/>
		<path class="st1" d="M690.2,426.9c32.4-18.7,44.8-58.7,29.9-92.2l-124.6,72C617,436.5,657.8,445.7,690.2,426.9"/>
		<path class="st1" d="M617.9,301.5c-32.4,18.7-44.8,58.7-29.9,92.2l124.6-72C691,291.9,650.2,282.8,617.9,301.5"/>
		<path class="st1" d="M654,581.5c37.4,0,68.1-28.4,71.9-64.8H582.1C585.9,553.1,616.6,581.5,654,581.5"/>
		<path class="st1" d="M654,436.6c-37.4,0-68.1,28.4-71.9,64.8h143.9C722.1,465,691.4,436.6,654,436.6"/>
		<path class="st1" d="M762.5,426.9c-32.4-18.7-44.8-58.7-29.9-92.2l124.6,72C835.7,436.5,794.9,445.7,762.5,426.9"/>
		<path class="st1" d="M834.8,301.5c32.4,18.7,44.8,58.7,29.9,92.2l-124.6-72C761.7,291.9,802.5,282.8,834.8,301.5"/>
		<path class="st1" d="M798.7,581.5c-37.4,0-68.1-28.4-71.9-64.8h143.9C866.8,553.1,836.1,581.5,798.7,581.5"/>
		<path class="st1" d="M798.7,436.6c37.4,0,68.1,28.4,71.9,64.8H726.7C730.6,465,761.3,436.6,798.7,436.6"/>
	</g>
</g>
</svg>
